General
Complete name : Shimana Perye (1977).avi
Format : AVI
Format/Info  : Audio Video Interleave
Format profile : OpenDML
File size  : 1.19 GiB
Duration : 1h 57mn
Overall bit rate  : 1 452 Kbps
Writing application : Lavf51.12.1

Video
ID : 0
Format : AVC
Format/Info : Advanced Video Codec
Format profile : Baseline@L2.1
Format settings, CABAC : No
Format settings, ReFrames : 1 frame
Format settings, GOP : M=1, N=12
Codec ID : H264
Duration : 1h 57mn
Bit rate : 1 309 Kbps
Width : 384 pixels
Height  : 288 pixels
Display aspect ratio  : 4:3
Frame rate mode  : Variable
Frame rate : 25.000 fps
Color space  : YUV
Chroma subsampling   : 4:2:0
Bit depth : 8 bits
Scan type : Progressive
Bits/(Pixel*Frame) : 0.474
Stream size : 1.07 GiB (90%)

Audio
ID : 1
Format : MPEG Audio
Format version : Version 1
Format profile : Layer 3
Mode : Joint stereo
Mode extension : MS Stereo
Codec ID : 55
Codec ID/Hint   : MP3
Duration : 1h 57mn
Bit rate mode : Constant
Bit rate  : 128 Kbps
Channel(s) : 2 channels
Sampling rate : 44.1 KHz
Compression mode : Lossy
Stream size : 107 MiB (9%)
Alignment : Aligned on interleaves
Interleave, duration : 26 ms (0.65 video frame)
Writing library : LAME3.97

Directed By : Alamgir Kabir
Star Cast : Bulbul Ahmed , Jayasree Sharker , Mustafa & Others .
Music : Bhupen Hajarika
Singers : Bhupen Hajarika & Abida Sultana
Written By : Alamgir Kabir (Based on a True Story) 

storyline
---------
A huge hit. Story based on a couple who found themselves in a remote island after their boat sunk in the storm. Directed by Alamgir Kabir, the film narrates a developing relationship between two individuals from different social strata, in the milieu of the 1970 cyclone.